<?xml version="1.0" encoding="UTF-8"?>
<svg width="3200px" height="660px" viewBox="0 0 3200 660" version="1.1" xmlns="http://www.w3.org/2000/svg" xmlns:xlink="http://www.w3.org/1999/xlink">
    <!-- Generator: Sketch 44.1 (41455) - http://www.bohemiancoding.com/sketch -->
    <title>bg-bottom</title>
    <desc>Created with Sketch.</desc>
    <defs>
        <linearGradient x1="103.418541%" y1="28.6722681%" x2="9.75962602%" y2="90.7646858%" id="linearGradient-1">
            <stop stop-color="#E8A640" offset="0%"></stop>
            <stop stop-color="#FC7E34" offset="100%"></stop>
        </linearGradient>
    </defs>
    <g id="Page-1" stroke="none" stroke-width="1" fill="none" fill-rule="evenodd">
        <g id="Desktop" transform="translate(-997.000000, -1066.000000)">
            <g id="bg-bottom" transform="translate(997.000000, 1066.000000)">
                <path d="M0,0.761977886 C0,0.761977886 155.264,76.6534149 394.0864,74.943864 C553.224533,73.807988 698.634976,-8.74381324 910.756576,0.761977904 C1053.99711,7.18139872 1211.4688,97.4376522 1371.42613,96.1411472 C1534.7968,94.8159585 1705.89583,4.29581446 1954.67947,0.761977886 C2203.4631,-2.77185868 2417.85173,114.515951 2616.74667,117.332694 C2958.44693,122.174509 3194.3424,22.0912063 3200,32.5550343 L3200,786.59349 L0,786.59349 L0,0.761977886 Z" id="Fill-1-Copy" fill="url(#linearGradient-1)"></path>
                <path d="M0,271.557888 C0,271.557888 155.264,426.72034 394.0864,423.225109 C553.224533,420.902774 698.634976,252.122996 910.756576,271.557888 C1053.99711,284.682598 1211.4688,469.214373 1371.42613,466.563628 C1534.7968,463.854237 1705.89583,278.782929 1954.67947,271.557888 C2203.4631,264.332847 2417.85173,504.131496 2616.74667,509.890417 C2958.44693,519.789662 3194.3424,315.166173 3200,336.559801 L3200,786.916795 L0,786.916795 L0,271.557888 Z" id="Fill-1" fill="#FFFFFF" style="mix-blend-mode: overlay;" opacity="0.200000003"></path>
                <path d="M0,639.578087 C0,639.578087 113.389875,348.840551 515.821875,357.90704 C836.342408,365.132081 901.248,552.502265 1087.68427,552.912779 C1241.2416,553.24119 1416.4736,349.907886 1576.35413,357.907039 C1734.76693,365.835818 1878.35733,572.981035 2033.49333,574.576174 C2184.6272,576.124397 2312.03594,343.668078 2553.69387,336.243644 C2795.3518,328.819211 2866.7058,493.095063 2972.05833,552.912774 C3135.90687,645.923451 3200,661.241482 3200,661.241482 L3200,786.600639 L0,786.600639 L0,639.578087 Z" id="Fill-3" fill="#FFFFFF" style="mix-blend-mode: overlay;" opacity="0.400000006"></path>
                <path d="M3200,531.072206 C3042.36373,531.072206 3019.1104,692.357177 2522.1632,682.739428 C2387.38773,680.135598 2102.05867,451.831332 1954.67947,444.406898 C1784.51627,435.821297 1608.61013,618.722747 1434.47893,617.737514 C1256.56747,616.728824 1096.2688,454.68147 930.048,444.406898 C747.776,433.135365 559.3344,659.950052 409.856,639.400909 C94.5834667,596.07412 0,466.070293 0,466.070293 L0,786.43519 L3200,786.43519 L3200,531.072206 Z" id="Fill-5" fill="#FFFFFF" style="mix-blend-mode: overlay;" opacity="0.600000024"></path>
            </g>
        </g>
    </g>
</svg>