<svg width="3200" height="660" viewBox="0 0 3200 660" xmlns="http://www.w3.org/2000/svg"><title>bg-bottom</title><desc>Created with Sketch.</desc><defs><linearGradient x1="103.419%" y1="28.672%" x2="9.76%" y2="90.765%" id="a"><stop stop-color="#E8A640" offset="0%"/><stop stop-color="#FC7E34" offset="100%"/></linearGradient></defs><g fill="none"><path d="M0 .762s155.264 75.891 394.086 74.182c159.138-1.136 304.549-83.688 516.67-74.182 143.241 6.419 300.712 96.676 460.67 95.379 163.371-1.325 334.47-91.845 583.253-95.379 248.784-3.534 463.172 113.754 662.067 116.571 341.7 4.842 577.596-95.241 583.253-84.778v754.038h-3200v-785.832z" fill="url(#a)"/><path d="M0 271.558s155.264 155.162 394.086 151.667c159.138-2.322 304.549-171.102 516.67-151.667 143.241 13.125 300.712 197.656 460.67 195.006 163.371-2.709 334.47-187.781 583.253-195.006 248.784-7.225 463.172 232.574 662.067 238.333 341.7 9.899 577.596-194.724 583.253-173.331v450.357h-3200v-515.359z" fill="#fff" style="mix-blend-mode:overlay" opacity=".2"/><path d="M0 639.578s113.39-290.738 515.822-281.671c320.521 7.225 385.426 194.595 571.862 195.006 153.557.328 328.789-203.005 488.67-195.006 158.413 7.929 302.003 215.074 457.139 216.669 151.134 1.548 278.543-230.908 520.201-238.333 241.658-7.424 313.012 156.851 418.364 216.669 163.849 93.011 227.942 108.329 227.942 108.329v125.359h-3200v-147.023z" fill="#fff" style="mix-blend-mode:overlay" opacity=".4"/><path d="M3200 531.072c-157.636 0-180.89 161.285-677.837 151.667-134.775-2.604-420.105-230.908-567.484-238.333-170.163-8.586-346.069 174.316-520.201 173.331-177.911-1.009-338.21-163.056-504.431-173.331-182.272-11.272-370.714 215.543-520.192 194.994-315.273-43.327-409.856-173.331-409.856-173.331v320.365h3200v-255.363z" fill="#fff" style="mix-blend-mode:overlay" opacity=".6"/></g></svg>