<svg width="3200" height="720" viewBox="0 0 3200 720" xmlns="http://www.w3.org/2000/svg"><title>bg-top</title><desc>Created with Sketch.</desc><defs><linearGradient x1="103.419%" y1="28.672%" x2="9.76%" y2="90.765%" id="a"><stop stop-color="#E8A640" offset="0%"/><stop stop-color="#FC7E34" offset="100%"/></linearGradient><linearGradient x1="50%" y1="-23.126%" x2="50%" y2="100%" id="b"><stop stop-color="#fff" stop-opacity=".5" offset="0%"/><stop stop-color="#fff" offset="100%"/></linearGradient></defs><g fill="none"><path d="M0 118.56s633.864 189.346 1107.976 189.346c534.612 0 991.666-378.178 991.666-296.301 0 470.805 1100.358 106.955 1100.358 106.955v669.72h-3200v-669.72z" fill="url(#a)"/><path d="M2 338.674s154.983 135.256 393.373 132.21c158.85-2.024 303.997-149.151 515.735-132.21 142.981 11.441 300.168 172.299 459.836 169.988 163.075-2.362 333.864-163.69 582.197-169.988 248.333-6.298 462.334 202.736 660.869 207.756 341.082 8.629 576.55-169.743 582.197-151.094v392.58h-3194.207v-449.243z" fill="#fff" style="mix-blend-mode:overlay" opacity=".2"/><path d="M2 640.578s113.185-290.738 514.888-281.671c319.94 7.225 384.728 194.595 570.827 195.006 153.279.328 328.194-203.005 487.785-195.006 158.126 7.929 301.456 215.074 456.312 216.669 150.86 1.548 278.038-230.908 519.259-238.333 241.22-7.424 312.445 156.851 417.607 216.669 163.552 93.011 227.529 108.329 227.529 108.329v125.359h-3194.207v-147.023z" fill="#fff" style="mix-blend-mode:overlay" opacity=".4"/><path d="M3196.207 532.072c-157.351 0-180.562 161.285-676.61 151.667-134.531-2.604-419.344-230.908-566.456-238.333-169.855-8.586-345.443 174.316-519.259 173.331-177.589-1.009-337.598-163.056-503.518-173.331-181.942-11.272-370.042 215.543-519.25 194.994-314.702-43.327-409.114-173.331-409.114-173.331v320.365h3194.207v-255.363z" fill="url(#b)" opacity=".634"/></g></svg>