<svg width="56" height="56" viewBox="0 0 56 56" xmlns="http://www.w3.org/2000/svg"><path d="M55.548 48.53c-.106-.451-.509-.77-.973-.77-5.396 0-11.519-6.24-17.706-18.046-4.693-8.955-7.773-18.038-7.915-18.46l-.042-.109-.029-.039c-.049-.096-.116-.176-.191-.251l-.054-.071-.016-.009-.137-.076-.166-.092-.031-.007-.059-.013c-.113-.027-.23-.039-.351-.024h-.009l-.238.062-.053.038c-.096.046-.177.107-.252.179l-.078.055-.017.028-.068.112-.092.153-.021.057c-.112.333-3.2 9.464-7.917 18.466-6.189 11.807-12.312 18.047-17.708 18.047-.464 0-.867.319-.973.77-.106.452.111.917.526 1.125.312.156 5.65 2.779 14.365 4.318l.165.029c3.626.631 7.83 1.073 12.493 1.073 15.997 0 26.579-5.199 27.022-5.42.414-.208.631-.673.525-1.125zm-39.808 3.465c-4.734-.841-8.462-2.008-10.854-2.888 8.981-3.351 16.703-18.845 20.844-28.775-3.147 19.652-7.308 31.263-9.99 31.663zm2.751.432c1.95-2.269 4.314-7.631 6.944-19.938 1.092-5.107 1.972-10.244 2.585-14.138.641 3.859 1.576 8.938 2.772 13.986 2.514 10.603 5.205 17.168 8.156 19.877-3.253.514-6.933.861-10.947.861-3.434 0-6.624-.254-9.51-.648zm23.558-.775c-1.511-.114-5.193-2.413-9.309-19.763-.917-3.866-1.678-7.751-2.27-11.084 4.186 9.943 11.804 25.003 20.644 28.302-2.082.765-5.177 1.749-9.065 2.545zm-14.049-50.727v7.087l10.63-3.544z" fill="#4CAF50"/></svg>