<svg width="98" height="116" viewBox="0 0 98 116" xmlns="http://www.w3.org/2000/svg">
    <g fill-rule="nonzero" fill="#009688">
        <path d="M59.294 38.853c0 1.176 1.029 2.206 2.206 2.206h21.324c1.176 0 2.206-1.029 2.206-2.206 0-1.176-1.029-2.206-2.206-2.206h-21.324c-1.176 0-2.206.882-2.206 2.206zM82.824 50.912h-21.324c-1.176 0-2.206 1.029-2.206 2.206 0 1.176 1.029 2.206 2.206 2.206h21.324c1.176 0 2.206-1.029 2.206-2.206 0-1.176-1.029-2.206-2.206-2.206zM82.824 65.029h-66.176c-1.176 0-2.206 1.029-2.206 2.206 0 1.176 1.029 2.206 2.206 2.206h66.176c1.176 0 2.206-1.029 2.206-2.206 0-1.176-1.029-2.206-2.206-2.206zM82.824 79.294h-66.176c-1.176 0-2.206 1.029-2.206 2.206 0 1.176 1.029 2.206 2.206 2.206h66.176c1.176 0 2.206-1.029 2.206-2.206 0-1.176-1.029-2.206-2.206-2.206zM82.824 93.559h-66.176c-1.176 0-2.206 1.029-2.206 2.206 0 1.176 1.029 2.206 2.206 2.206h66.176c1.176 0 2.206-1.029 2.206-2.206 0-1.176-1.029-2.206-2.206-2.206zM32.088 55.912c10.588 0 19.118-8.529 19.118-19.118 0-3.971-1.176-7.647-3.382-10.735-1.029-2.206-2.794-3.971-5-5-3.088-2.059-6.765-3.382-10.735-3.382-10.588 0-19.118 8.529-19.118 19.118 0 10.588 8.676 19.118 19.118 19.118zm0-33.676v14.706h14.706c0 8.088-6.618 14.706-14.706 14.706s-14.706-6.618-14.706-14.706 6.618-14.706 14.706-14.706zM97.824 23.412c.147-.735 0-1.618-.588-2.206l-21.176-20.294c-.588-.588-1.324-.735-2.059-.441l-.882-.147h-67.941c-2.794 0-5.147 2.353-5.147 5.147v104.706c0 2.794 2.353 5.147 5.147 5.147h87.5c2.794 0 5.147-2.353 5.147-5.147v-86.029c.147-.294 0-.588 0-.735zm-7.647-2.941h-12.794c-.441 0-.735-.294-.735-.735v-12.206l13.529 12.941zm3.382 89.706c0 .441-.294.735-.735.735h-87.647c-.441 0-.735-.294-.735-.735v-104.706c0-.441.294-.735.735-.735h67.059v15.147c0 2.794 2.353 5.147 5.147 5.147h16.029v85.147h.147z"/>
    </g>
</svg>