<svg width="81" height="65" viewBox="0 0 81 65" xmlns="http://www.w3.org/2000/svg">
    <path d="M68.932 1.482h-57.385l-10.306 18.452 39 43.548 38.76-43.281.24-.267-10.31-18.452zm-27.541 1.098h25.87l-14.063 16.312-11.807-16.312zm10.611 16.736h-23.527l11.767-16.248 11.761 16.248zm-24.723-.425l-14.065-16.312h25.877l-11.812 16.312zm-1.222.425h-23.057l9.064-16.228 13.993 16.228zm.775 1.099l12.004 39.699-35.553-39.699h23.549zm25.495 0l-12.086 39.988-12.091-39.988h24.177zm2.094-1.099l13.991-16.228 9.071 16.228h-23.062zm22.778 1.099l-35.552 39.699 11.998-39.699h23.554z"
          stroke="#ffa500" stroke-width="2" fill="#FFC107"/>
</svg>