<svg width="110" height="110" viewBox="0 0 110 110" xmlns="http://www.w3.org/2000/svg"><title>Group</title><desc>Created with Sketch.</desc><path d="M99.32 6.995h-88.641c-1.884 0-3.409 1.525-3.409 3.409v65.55c0 1.882 1.525 3.409 3.409 3.409h16.307l-8.668 18.8c-.789 1.709-.041 3.736 1.668 4.523.461.214.948.314 1.425.314 1.289 0 2.523-.734 3.098-1.982l9.986-21.655h17.095v20.227c0 1.882 1.525 3.409 3.409 3.409 1.882 0 3.409-1.527 3.409-3.409v-20.227h17.093l9.986 21.655c.575 1.248 1.809 1.982 3.098 1.982.477 0 .964-.1 1.425-.314 1.711-.789 2.457-2.814 1.668-4.523l-8.668-18.8h16.309c1.882 0 3.409-1.527 3.409-3.409v-65.55c0-1.882-1.527-3.409-3.409-3.409zm-2.23 67.17h-83.82v-62.17h83.82v62.17zm-71.414-12.671c.789 0 1.58-.27 2.223-.825l18.714-16.105 7.7 7.793c1.245 1.264 3.25 1.355 4.609.22l27.02-22.557c1.448-1.207 1.641-3.357.432-4.802-1.207-1.445-3.357-1.639-4.8-.432l-24.614 20.548-7.732-7.825c-1.257-1.273-3.289-1.359-4.648-.189l-21.125 18.182c-1.427 1.227-1.589 3.38-.359 4.807.668.782 1.623 1.184 2.58 1.184z" fill="#009688"/></svg>