<svg width="100" height="61" viewBox="0 0 100 61" xmlns="http://www.w3.org/2000/svg">
    <path d="M99.742 37.795c.331-.656.367-1.422.102-2.107l-.723-1.872c-5.536-14.375-15.814-41.006-49.101-31.19-33.291-9.827-43.565 16.813-49.1 31.19l-.723 1.872c-.267.683-.231 1.451.102 2.107.476.944 12.086 23.082 49.722 23.082 37.637 0 49.245-22.139 49.721-23.082zm-50.487-30.006l.012.002c.478.145 1.002.155 1.515-.002 27.848-8.611 36.954 11.076 42.649 25.677-.367-.122-.913-.298-1.618-.519-.159-.091-.326-.171-.507-.229-.493-.16-.942-.293-1.418-.442-.25-.179-.533-.319-.847-.402l-.704-.185h-.007c-12.199-3.176-18.923-5.293-23.374-6.696-6.453-2.032-8.4-2.645-14.937-2.645-6.349 0-7.91.497-13.723 2.343-3.973 1.263-9.77 3.104-20.474 5.925l-.626.164c-1.113.292-2.26.592-3.48.904l-.012.005h-.003l-.704.185c-.311.081-.592.221-.84.399-.48.15-.933.285-1.429.447-.181.059-.35.138-.507.231-.702.221-1.247.397-1.613.519 5.697-14.606 14.799-34.29 42.649-25.681zm.764 47.913c-26.193 0-38.439-11.335-42.949-17.049.229-.014.461-.038.688-.116.128-.043 7.74-2.629 18.1-4.753 6.56-.89 10.221-.021 14.013.882 2.909.69 5.918 1.406 10.148 1.406 4.244 0 7.222-.728 10.101-1.434 3.713-.907 7.3-1.78 13.826-.904 10.479 2.131 18.202 4.757 18.331 4.8.228.078.459.102.688.116-4.515 5.723-16.759 17.053-42.947 17.053z"
          fill="#F44336"/>
</svg>