<?xml version="1.0" encoding="UTF-8"?>
<svg width="110px" height="110px" viewBox="0 0 110 110" version="1.1" xmlns="http://www.w3.org/2000/svg" xmlns:xlink="http://www.w3.org/1999/xlink">
    <!-- Generator: Sketch 44.1 (41455) - http://www.bohemiancoding.com/sketch -->
    <title>Group</title>
    <desc>Created with Sketch.</desc>
    <defs></defs>
    <g id="Page-1" stroke="none" stroke-width="1" fill="none" fill-rule="evenodd">
        <g id="Desktop-Copy" transform="translate(-372.000000, -740.000000)" fill-rule="nonzero" fill="#009688">
            <g id="Group" transform="translate(377.000000, 745.000000)">
                <path d="M94.3204545,1.99545455 L5.67954545,1.99545455 C3.79545455,1.99545455 2.27045455,3.52045455 2.27045455,5.40454545 L2.27045455,70.9545455 C2.27045455,72.8363636 3.79545455,74.3636364 5.67954545,74.3636364 L21.9863636,74.3636364 L13.3181818,93.1636364 C12.5295455,94.8727273 13.2772727,96.9 14.9863636,97.6863636 C15.4477273,97.9 15.9340909,98 16.4113636,98 C17.7,98 18.9340909,97.2659091 19.5090909,96.0181818 L29.4954545,74.3636364 L46.5909091,74.3636364 L46.5909091,94.5909091 C46.5909091,96.4727273 48.1159091,98 50,98 C51.8818182,98 53.4090909,96.4727273 53.4090909,94.5909091 L53.4090909,74.3636364 L70.5022727,74.3636364 L80.4886364,96.0181818 C81.0636364,97.2659091 82.2977273,98 83.5863636,98 C84.0636364,98 84.55,97.9 85.0113636,97.6863636 C86.7227273,96.8977273 87.4681818,94.8727273 86.6795455,93.1636364 L78.0113636,74.3636364 L94.3204545,74.3636364 C96.2022727,74.3636364 97.7295455,72.8363636 97.7295455,70.9545455 L97.7295455,5.40454545 C97.7295455,3.52272727 96.2022727,1.99545455 94.3204545,1.99545455 Z M92.0904542,69.1654527 L8.27045455,69.1654527 L8.27045455,6.99545455 L92.0904542,6.99545455 L92.0904542,69.1654527 Z M20.6763049,56.4947433 C21.4649413,56.4947433 22.2558504,56.2242887 22.8990322,55.6697433 L41.6126685,39.5651978 L49.3126685,47.3583797 C50.5581231,48.622016 52.5626685,48.7129251 53.9217595,47.5788342 L80.942214,25.022016 C82.3899413,23.8151978 82.5831231,21.6651978 81.3740322,20.2197433 C80.167214,18.7742887 78.017214,18.5811069 76.5740322,19.7879251 L51.9603958,40.3356524 L44.2285776,32.5106524 C42.9717595,31.2379251 40.9399413,31.1515615 39.5808504,32.322016 L18.4558504,50.5038342 C17.0285776,51.7311069 16.867214,53.8833797 18.0967595,55.3106524 C18.7649413,56.0924706 19.7194867,56.4947433 20.6763049,56.4947433 Z" id="Shape"></path>
            </g>
        </g>
    </g>
</svg>