<?xml version="1.0" encoding="UTF-8"?>
<svg width="100px" height="89px" viewBox="0 0 100 89" version="1.1" xmlns="http://www.w3.org/2000/svg" xmlns:xlink="http://www.w3.org/1999/xlink">
    <!-- Generator: Sketch 44.1 (41455) - http://www.bohemiancoding.com/sketch -->
    <title>icon-service-pr</title>
    <desc>Created with Sketch.</desc>
    <defs></defs>
    <g id="Page-1" stroke="none" stroke-width="1" fill="none" fill-rule="evenodd">
        <g id="icon-service-pr" transform="translate(0.000000, 1.000000)" fill-rule="nonzero" fill="#3F51B5">
            <path d="M57.5405069,23.2239302 C58.7868716,26.6514333 60.0332364,30.0789364 61.2796012,33.4960532 C63.253012,38.9073536 65.2264229,44.3290403 67.1894474,49.7403407 C67.6464479,50.9867054 68.0930619,52.2226838 68.5500623,53.4690486 C69.3082676,52.8874117 70.0768592,52.2953885 70.8350644,51.7137516 C69.2355629,50.8309098 67.4491068,50.2596593 65.6834233,49.8234317 C63.9073536,49.387204 62.02742,49.0444537 60.189032,49.0652264 C58.7453261,49.0859992 57.571666,49.5845451 56.2422102,50.0727046 C51.5267968,51.7864562 46.8113835,53.5105941 42.0959701,55.2243457 C40.7353552,55.7228916 39.364354,56.2214375 38.0037391,56.709597 C38.6476942,57.0731201 39.281263,57.4366431 39.9252181,57.8001662 C39.1462401,55.650187 38.3568758,53.5002077 37.5778978,51.3502285 C36.3523058,47.9434981 35.105941,44.5367678 33.8699626,41.1300374 C33.5791442,40.340673 33.2987121,39.5616951 33.0078936,38.7723307 C32.6443706,39.4162858 32.2808475,40.0498546 31.9173245,40.6938097 C35.4486913,39.4058995 38.9800582,38.1283756 42.5010386,36.8404653 C44.848359,35.9887827 47.1852929,35.1371001 49.5326132,34.2854175 C50.2388866,34.0257582 50.94516,33.7764853 51.6410469,33.5168259 C52.1395929,33.3298712 52.6589115,33.1636892 53.1159119,32.8832572 C54.8192771,31.8446199 56.1591192,30.1828002 57.3639385,28.6248442 C58.6414624,26.9630245 59.7839634,25.1869547 60.5421687,23.2239302 C60.8329871,22.465725 60.2201911,21.4790195 59.4515995,21.3024512 C58.5583714,21.0947237 57.852098,21.5724969 57.5301205,22.3930204 C57.4989614,22.465725 57.3535521,22.8084753 57.5197341,22.4345658 C57.488575,22.5072705 57.4574159,22.5799751 57.4262568,22.6422933 C57.3431658,22.829248 57.2496884,23.0058164 57.1665974,23.1927711 C56.9692563,23.5874533 56.7511425,23.9613627 56.5330287,24.3456585 C56.0552555,25.1350229 55.5359369,25.9036145 54.9854591,26.6514333 C54.9127545,26.7449107 54.8400499,26.8487744 54.7673452,26.9422518 C54.9231408,26.7345243 54.7777316,26.9318654 54.7465725,26.9630245 C54.6011633,27.1499792 54.4453677,27.3369339 54.2999585,27.5135023 C54.00914,27.866639 53.7079352,28.2093893 53.396344,28.5417532 C53.1159119,28.842958 52.8250935,29.1441629 52.5135023,29.4245949 C52.3992522,29.5284587 52.2850021,29.6323224 52.170752,29.7257998 C52.087661,29.7985044 52.00457,29.8608226 51.921479,29.9335272 C51.6929788,30.1308683 52.1811383,29.7569589 51.921479,29.9335272 C51.7033652,30.0789364 51.474865,30.2035729 51.2671375,30.3489821 C51.0697964,30.484005 51.5891151,30.234732 51.3398421,30.317823 C51.2048193,30.3593685 51.0801828,30.4113004 50.94516,30.4632322 C50.3012048,30.7021188 49.6468633,30.930619 49.0029082,31.1695056 C44.349813,32.8624844 39.7071043,34.5554632 35.0540091,36.248442 C33.7349398,36.7262152 32.405484,37.2143747 31.0864146,37.6921479 C30.3489821,37.9621936 29.6946406,38.7619443 29.9958455,39.6136269 C30.7748234,41.7636061 31.5641878,43.9135854 32.3431658,46.0635646 C33.5791442,49.470295 34.8255089,52.8770253 36.0614873,56.2837557 C36.3523058,57.0731201 36.6327378,57.852098 36.9235563,58.6414624 C37.193602,59.3788949 37.9933527,60.0332364 38.8450353,59.7320316 C42.2933112,58.4752804 45.741587,57.2185293 49.1898629,55.9721645 C51.5267968,55.1204819 53.8533444,54.2791857 56.1902784,53.4275031 C57.2496884,53.0432073 58.3194848,52.534275 59.410054,52.2746157 C59.4723722,52.2642293 59.5346905,52.253843 59.5970087,52.2330702 C59.9501454,52.1395929 59.2542584,52.2434566 59.5658496,52.2330702 C59.7216452,52.2330702 59.8878272,52.2122975 60.0436228,52.2019111 C60.4486913,52.1915247 60.8537599,52.2019111 61.2692148,52.2330702 C61.5184877,52.253843 61.7677607,52.2746157 62.0170337,52.3057748 C62.1001246,52.3161612 62.193602,52.3265476 62.276693,52.3369339 C61.9027835,52.2953885 62.3078521,52.3473203 62.3909431,52.3577067 C62.8998754,52.4304113 63.3984213,52.5238887 63.8969672,52.6277524 C64.9356045,52.8458662 65.9638554,53.1159119 66.98172,53.4482759 C67.2206066,53.5313668 67.4491068,53.6040715 67.677607,53.6975488 C67.760698,53.7287079 67.8437889,53.7598671 67.9268799,53.7910262 C67.9684254,53.8014125 68.4150395,53.9883673 68.2176984,53.9052763 C67.9995845,53.8117989 68.3631076,53.9675945 68.373494,53.9779809 C68.4773577,54.0299128 68.5916078,54.0714582 68.6954715,54.1233901 C68.8928126,54.2168675 69.0901537,54.3207312 69.2874948,54.4349813 C70.3884504,55.0477773 72.0606564,54.00914 71.5724969,52.6796843 C70.3261321,49.2521811 69.0797673,45.824678 67.8334026,42.4075613 C65.8599917,36.9962609 63.8865808,31.5745742 61.9235563,26.1632738 C61.4665559,24.916909 61.0199418,23.6809306 60.5629414,22.4345658 C60.272123,21.6452015 59.5035314,21.1154965 58.6414624,21.3439967 C57.8728708,21.5101786 57.2600748,22.4241795 57.5405069,23.2239302 Z" id="Shape"></path>
            <path d="M61.7158288,18.903199 C62.2143747,20.2638139 62.7129206,21.6348151 63.2010802,22.99543 C64.364354,26.1840465 65.5276278,29.3830494 66.6909015,32.571666 C68.0307437,36.2380557 69.3601994,39.9148317 70.7000415,43.5812214 C71.7179061,46.3647694 72.7253843,49.1483174 73.7432489,51.9318654 C73.9821354,52.5862069 74.221022,53.230162 74.4495222,53.8845035 C74.470295,53.9364354 74.4910677,53.9987536 74.5118405,54.0506855 C74.5118405,54.0610719 74.5222268,54.0714582 74.5222268,54.0818446 C74.5429996,54.1337765 74.5326132,54.1130037 74.5637723,54.2168675 C74.5845451,54.2791857 74.5949314,54.3622767 74.6157042,54.4245949 C74.6780224,54.5907769 74.6364769,54.1441629 74.6260906,54.4869132 C74.6157042,54.6115496 74.6053178,54.8919817 74.6468633,54.6115496 C74.6260906,54.7673452 74.5741587,54.9127545 74.5326132,55.0685501 C74.4599086,55.2866639 74.6468633,54.871209 74.5326132,55.0685501 C74.5014541,55.1204819 74.4599086,55.1828002 74.4287495,55.2451184 C74.3975904,55.3074366 74.2521811,55.4632322 74.4391359,55.2555048 C74.3768176,55.3282094 74.3144994,55.3801413 74.2521811,55.4528459 C74.0756128,55.650187 74.1794765,55.5151641 74.2521811,55.4736186 C74.2002493,55.5151641 74.137931,55.5463232 74.0756128,55.5878687 C74.0340673,55.6086415 73.774408,55.7332779 73.9509763,55.6605733 C74.1067719,55.5982551 73.8886581,55.6813461 73.8678853,55.6813461 C73.774408,55.7021188 73.6809306,55.7228916 73.5978396,55.7540507 C73.6497715,55.7436643 73.8263398,55.7644371 73.6705442,55.7436643 C73.608226,55.7332779 73.525135,55.7436643 73.4628168,55.7540507 C73.1096801,55.7748234 73.5770669,55.8163689 73.4108849,55.7644371 C73.2654757,55.7125052 73.1096801,55.6917324 72.9642709,55.6398006 C73.2343166,55.7436643 72.8915663,55.5774823 72.7980889,55.5255505 C72.6526797,55.4424595 72.8188617,55.5463232 72.8396344,55.567096 C72.7669298,55.5047777 72.7149979,55.4424595 72.6422933,55.3801413 C72.6319069,55.3697549 72.4864977,55.1931865 72.5903614,55.3282094 C72.7046115,55.484005 72.5072705,55.1724138 72.4864977,55.1412547 C72.3203157,54.8919817 72.5072705,55.234732 72.4449522,55.0789364 C72.382634,54.9023681 72.3203157,54.7257998 72.2579975,54.5492314 C71.9567927,53.7183216 71.6555879,52.8874117 71.3439967,52.0461155 C70.2534275,49.0444537 69.1628583,46.0531782 68.0722892,43.0515164 C66.732447,39.364354 65.3926049,35.6875779 64.0527628,32.0004155 C62.9621936,28.9883673 61.8612381,25.9867054 60.7706689,22.9746572 C60.4694641,22.1437474 60.1682592,21.3232239 59.8670544,20.4923141 C59.8047362,20.3261321 59.7424179,20.1495638 59.6800997,19.9833818 C59.6385542,19.8587453 59.6073951,19.7133361 59.5658496,19.5886996 C59.493145,19.3913585 59.5450769,19.8068135 59.5658496,19.5886996 C59.576236,19.5263814 59.5658496,19.4432904 59.5554632,19.3809722 C59.5450769,19.3082676 59.5866224,19.069381 59.5346905,19.3913585 C59.5450769,19.3290403 59.5554632,19.2563357 59.576236,19.1940174 C59.6073951,19.0901537 59.7631907,18.7474034 59.6281678,18.9966764 C59.6800997,18.903199 59.9501454,18.5292896 59.7528043,18.7577898 C59.8047362,18.6954715 60.0955546,18.4254258 59.9916909,18.5085168 C59.8566681,18.6123806 60.0332364,18.4773577 60.0540091,18.4669713 C60.1371001,18.4254258 60.2098047,18.373494 60.2928957,18.3319485 C60.0540091,18.456585 60.4383049,18.290403 60.5317823,18.2800166 C60.355214,18.3111757 60.9576236,18.290403 60.7602825,18.2592439 C61.0303282,18.290403 61.2796012,18.4150395 61.3938513,18.4981305 C61.331533,18.456585 61.6119651,18.7058579 61.6742833,18.7889489 C61.4665559,18.5396759 61.8300789,19.1732447 61.7158288,18.903199 C62.02742,19.682177 62.7544661,20.2326548 63.6373079,19.9937682 C64.3851267,19.7860407 65.0394682,18.8616535 64.727877,18.0722892 C63.9177399,16.0469464 61.9235563,14.7590361 59.7008725,15.2679684 C57.8417117,15.7041961 56.543415,17.3660158 56.4395513,19.2355629 C56.3876194,20.0976319 56.6784379,20.824678 56.9692563,21.603656 C57.8624844,24.0652264 58.7557125,26.5267968 59.659327,28.9779809 C61.0199418,32.7274616 62.3909431,36.4769423 63.751558,40.2368093 C65.0186955,43.7266307 66.2962194,47.216452 67.5633569,50.7062734 C68.1865393,52.4304113 68.7993353,54.1649356 69.4432904,55.8786872 C69.8379726,56.9173245 70.5027005,57.8417117 71.5101786,58.350644 C73.1719983,59.1815538 75.249273,58.9218945 76.557956,57.5508932 C77.783548,56.2525966 77.9912754,54.4869132 77.3992522,52.866639 C76.6098878,50.7166597 75.8309098,48.5562941 75.0415455,46.4063149 C73.7120897,42.760698 72.382634,39.115081 71.0635646,35.4694641 C69.7444952,31.8446199 68.4254258,28.230162 67.1063565,24.6053178 C66.3481512,22.5280432 65.589946,20.4403822 64.8317408,18.3631076 C64.8005816,18.2696302 64.7590361,18.1657665 64.727877,18.0722892 C64.4370586,17.2829248 63.668467,16.7532198 62.806398,16.98172 C62.0481928,17.1998338 61.4250104,18.1138346 61.7158288,18.903199 Z" id="Shape"></path>
            <path d="M30.0062318,39.6032405 C30.7852098,41.7532198 31.5745742,43.903199 32.3535521,46.0531782 C33.5895305,49.4599086 34.8358953,52.866639 36.0718737,56.2733693 C36.3626921,57.0627337 36.6431242,57.8417117 36.9339427,58.631076 C37.2974657,57.9871209 37.6609888,57.3535521 38.0245118,56.709597 C37.7856253,56.8030744 37.5363523,56.875779 37.276693,56.9380972 C37.1832156,56.95887 37.0793519,56.9796427 36.9858745,57.0004155 C36.9547154,57.0108018 36.4665559,57.0731201 36.8093062,57.0419609 C36.2692148,57.1042792 35.7291234,57.1042792 35.189032,57.0419609 C35.5421687,57.0835064 35.0643955,57.0108018 35.02285,57.0108018 C34.9085999,56.9900291 34.7839634,56.95887 34.6697133,56.9277108 C34.410054,56.8653926 34.1607811,56.7719152 33.9115081,56.6888243 C33.631076,56.5953469 33.8180307,56.6576651 33.880349,56.6784379 C33.7453261,56.6161197 33.6206897,56.5538014 33.4856668,56.4914832 C33.2260075,56.3564603 32.9767345,56.2110511 32.7378479,56.0448691 C32.7170752,56.0344828 32.3431658,55.7436643 32.5820523,55.9410054 C32.5093477,55.8786872 32.4366431,55.8163689 32.3535521,55.7540507 C32.1354383,55.567096 31.9277108,55.3593685 31.7303698,55.1412547 C31.6680515,55.0685501 31.6057333,54.9958455 31.543415,54.9231408 C31.2422102,54.5700042 31.6784379,55.1620274 31.4291649,54.7673452 C31.2525966,54.4972995 31.0760283,54.2272538 30.930619,53.9364354 C30.7852098,53.645617 30.6605733,53.2924803 30.5047777,52.8770253 C30.0373909,51.5891151 29.5700042,50.3012048 29.1026174,49.0132946 C28.9779809,48.6601579 28.842958,48.3174076 28.7183216,47.9642709 C28.645617,47.7669298 28.5832987,47.5799751 28.5313668,47.382634 C28.4898214,47.2268384 28.4482759,47.0606564 28.4171167,46.8944744 C28.4067304,46.8113835 28.3444121,46.3959285 28.3859576,46.7282925 C28.3547985,46.4894059 28.3444121,46.2401329 28.3444121,46.0012464 C28.3444121,45.8558371 28.3444121,45.7104279 28.3547985,45.5650187 C28.3547985,45.5130868 28.4067304,45.0249273 28.3859576,45.2014956 C28.3547985,45.4299958 28.4275031,44.9729954 28.4275031,44.9833818 C28.4690486,44.7964271 28.5105941,44.6094724 28.562526,44.4225177 C28.5832987,44.3290403 28.6144578,44.2355629 28.645617,44.152472 C28.6663897,44.1005401 28.8637308,43.5604487 28.7390943,43.8616535 C28.9572081,43.3423349 29.2480266,42.8334026 29.6011633,42.3867885 C29.4038222,42.6464479 29.705027,42.2829248 29.7257998,42.2621521 C29.8192771,42.1582883 29.9231408,42.0544246 30.0270046,41.9505609 C30.1308683,41.8466971 30.234732,41.7532198 30.3385958,41.649356 C30.3489821,41.6389697 30.7125052,41.3481512 30.4736186,41.5247196 C30.7021188,41.3481512 30.9513918,41.1819693 31.2110511,41.03656 C31.3356876,40.9638554 31.4707104,40.8911508 31.6057333,40.8288326 C31.6992106,40.7872871 31.7823016,40.7457416 31.875779,40.7041961 C31.7407561,40.7665143 31.7511425,40.756128 31.9277108,40.6938097 C32.7170752,40.4029913 33.2571666,39.644786 33.01828,38.7723307 C32.8105526,38.0141255 31.8965517,37.3909431 31.096801,37.6817615 C28.5002077,38.6580806 26.4956377,40.6626506 25.6439551,43.3215621 C25,45.3053594 25.2077275,47.3618612 25.9140008,49.2937266 C26.4229331,50.695887 26.9318654,52.0980474 27.451184,53.5105941 C28.0951392,55.2866639 28.8948899,56.9380972 30.400914,58.1533029 C32.7378479,60.0540091 35.9887827,60.7602825 38.8554217,59.7112588 C39.5928542,59.4412131 40.2471957,58.6414624 39.9459909,57.7897798 C39.1670129,55.6398006 38.3776485,53.4898214 37.5986705,51.3398421 C36.3523058,47.9434981 35.105941,44.5367678 33.8699626,41.1300374 C33.5791442,40.340673 33.2987121,39.5616951 33.0078936,38.7723307 C32.7170752,37.9829663 31.9484836,37.4532613 31.0864146,37.6817615 C30.3282094,37.8998754 29.7154134,38.8034898 30.0062318,39.6032405 Z" id="Shape"></path>
            <path d="M27.7420025,54.3415039 C27.9601163,54.9023681 28.1990029,55.4528459 28.5002077,55.9721645 C28.8117989,55.2139593 29.1233901,54.4453677 29.4349813,53.6871624 C29.0714582,53.8221853 28.7079352,53.9468218 28.3444121,54.0818446 C28.147071,54.1545492 27.9601163,54.2272538 27.7627752,54.2895721 C27.7212297,54.2999585 27.6796843,54.3207312 27.6381388,54.3311176 C27.5965933,54.3518903 27.5446614,54.3518903 27.5031159,54.3726631 C27.6692979,54.3622767 27.700457,54.3518903 27.5862069,54.3622767 C27.4719568,54.3622767 27.4927295,54.3726631 27.6796843,54.3830494 C27.5446614,54.3103448 27.5654342,54.2895721 27.6900706,54.4038222 C27.6589115,54.3726631 27.4823432,54.3207312 27.6277524,54.3830494 C27.7939344,54.4557541 27.5550478,54.2272538 27.6381388,54.3830494 C27.6692979,54.4453677 27.7523889,54.4557541 27.7212297,54.5596178 C27.7316161,54.5284587 27.6692979,54.4142086 27.6589115,54.3934358 C27.5446614,54.0818446 27.4304113,53.7702534 27.3161612,53.4586622 C26.9630245,52.4927295 26.6098878,51.5267968 26.2671375,50.5712505 C26.1321147,50.1973411 25.9970918,49.8130453 25.8516826,49.4391359 C25.8205235,49.3456585 25.7893644,49.2417948 25.7478189,49.1483174 C25.7374325,49.1275447 25.7374325,49.1171583 25.7270461,49.0963855 C25.7166597,49.0756128 25.7374325,49.0756128 25.7062734,49.0236809 C25.5920233,48.8471126 25.8101371,49.2521811 25.695887,48.9717491 C25.7893644,49.1898629 25.5193187,49.05484 25.7062734,49.0029082 C25.6855006,49.0444537 25.6647279,49.0963855 25.6439551,49.137931 C25.7270461,49.0132946 25.7374325,48.9925218 25.6647279,49.0756128 C25.612796,49.2314084 25.8101371,49.0132946 25.6647279,49.0859992 C25.612796,49.1067719 25.5400914,49.1690902 25.4985459,49.1690902 C25.6231824,49.1898629 25.9036145,49.0236809 26.0178646,48.9821354 C26.4437059,48.8263398 26.8695472,48.6705442 27.2850021,48.5147486 C26.6410469,48.1512256 26.0074782,47.7877025 25.3635231,47.4241795 C25.5816369,48.7224761 26.1528874,49.9792273 26.5995015,51.2152057 C26.9837973,52.2642293 27.3680931,53.3028666 27.7420025,54.3415039 C28.0328209,55.1308683 28.8014125,55.6605733 29.6634815,55.4320731 C30.4216867,55.2243457 31.0448691,54.3103448 30.7540507,53.5105941 C30.3801413,52.4719568 29.9958455,51.4333195 29.621936,50.3946822 C29.175322,49.1587038 28.6040715,47.9019526 28.3859576,46.603656 C28.2509348,45.8142916 27.2019111,45.2534275 26.4644786,45.5130868 C25.3531367,45.9181554 23.9821354,46.2193602 23.2239302,47.1852929 C22.6111342,47.9746572 22.4345658,49.0029082 22.7357707,49.9480681 C22.829248,50.2388866 22.9434981,50.529705 23.0577482,50.8205235 C23.4628168,51.921479 23.857499,53.0224346 24.2625675,54.1130037 C24.6572497,55.1931865 24.9584545,56.3876194 26.0074782,57.0211882 C27.4615704,57.8936435 28.8637308,57.1769838 30.2658912,56.6680515 C31.1902784,56.3253012 31.7407561,55.3074366 31.2006647,54.3830494 C31.01371,54.0610719 30.8371417,53.7183216 30.7540507,53.4898214 C30.4528459,52.700457 29.705027,52.1603656 28.8325717,52.3992522 C28.0743664,52.6277524 27.4407977,53.5521396 27.7420025,54.3415039 Z" id="Shape"></path>
            <path d="M70.1391774,32.6651433 C70.6688824,34.1296219 71.2089738,35.6044869 71.7386789,37.0689655 C71.8425426,37.3701703 71.9567927,37.6609888 72.0606564,37.9621936 C72.0814292,38.0141255 72.1022019,38.0764437 72.1229747,38.1283756 C72.2579975,38.4607395 72.1022019,38.1491483 72.1541338,38.1179892 C72.1541338,38.3049439 72.1541338,38.2945575 72.1852929,38.0972165 C72.133361,38.2633984 72.1437474,38.2633984 72.2060656,38.0868301 C72.1125883,38.2322393 72.1229747,38.2322393 72.2268384,38.0868301 C72.1022019,38.2114666 72.1022019,38.2114666 72.2372248,38.0972165 C72.216452,38.0972165 72.465725,38.0452846 72.299543,38.0764437 C72.133361,38.1076028 71.9671791,38.2010802 71.8113835,38.253012 C71.437474,38.3880349 71.0635646,38.5230577 70.7000415,38.6580806 C71.3439967,39.0216037 71.9775654,39.3851267 72.6215206,39.7486498 C71.6348151,37.02742 70.6377233,34.3061903 69.6510179,31.5849605 C69.2874948,32.2289157 68.9239717,32.8624844 68.5604487,33.5064396 C69.0070627,33.3402576 69.4432904,33.184462 69.8899044,33.01828 C69.9833818,32.9871209 70.0768592,32.9559618 70.1599501,32.9144163 C70.2326548,32.8832572 70.4092231,32.7586207 70.2742002,32.8624844 C70.1599501,32.9455754 70.4092231,32.8624844 70.2534275,32.852098 C70.128791,32.8313253 70.1495638,32.8417117 70.3053594,32.8728708 C70.2638139,32.852098 70.211882,32.8313253 70.1703365,32.8105526 C70.211882,32.8313253 70.2430411,32.852098 70.2845866,32.8728708 C70.2430411,32.8417117 70.211882,32.8209389 70.1703365,32.7897798 C70.2742002,32.9040299 70.294973,32.9144163 70.2222684,32.8313253 C70.1703365,32.8001662 70.1495638,32.7378479 70.1391774,32.6651433 C70.461155,33.4441213 71.1674283,33.9945991 72.0606564,33.7557125 C72.7877025,33.5583714 73.4732032,32.6235978 73.1512256,31.8342335 C72.829248,31.0760283 72.3930204,30.4424595 71.6348151,30.0685501 C70.9285418,29.7257998 70.128791,29.6530951 69.3809722,29.8919817 C68.8304944,30.0685501 68.2800166,30.2970503 67.7295388,30.4943914 C66.9921064,30.7644371 66.3377649,31.5641878 66.6389697,32.4158704 C67.6256751,35.1371001 68.6227669,37.8583299 69.6094724,40.5795596 C69.8795181,41.3169921 70.6792688,41.9713336 71.5309514,41.6701288 C72.0814292,41.4727877 72.6422933,41.2754466 73.1927711,41.0677192 C74.7195679,40.4756959 75.6543415,38.9177399 75.1350229,37.2974657 C74.7091816,35.9783963 74.1794765,34.6697133 73.7017034,33.3714167 C73.5147486,32.8624844 73.3381803,32.3535521 73.1512256,31.8550062 C72.8604071,31.0656419 72.0918155,30.5359369 71.2297466,30.7644371 C70.461155,30.9617781 69.848359,31.875779 70.1391774,32.6651433 Z" id="Shape"></path>
            <path d="M50.9555463,67.3348567 C49.6260906,67.8230162 48.2966348,68.3007894 46.9671791,68.7889489 C46.7179061,68.8824263 46.4582468,68.9759036 46.2089738,69.069381 C46.1674283,69.0901537 46.1154965,69.1005401 46.073951,69.1213128 C45.99086,69.152472 45.8662235,69.1628583 45.8039053,69.2147902 C45.6481097,69.3186539 46.157042,69.1940174 45.9804736,69.1940174 C45.9285418,69.1940174 46.2401329,69.2355629 46.3128376,69.2667221 C46.4167013,69.3082676 46.4894059,69.3601994 46.5828833,69.4225177 C46.5413378,69.3913585 46.4270877,69.2147902 46.5724969,69.4225177 C46.4997923,69.3290403 46.437474,69.2251766 46.3751558,69.1213128 C46.3647694,69.1005401 46.354383,69.0797673 46.3439967,69.069381 C46.2712921,68.9551309 46.2089738,68.8304944 46.1466556,68.7058579 C44.5575405,65.8911508 42.9684254,63.0764437 41.3793103,60.2617366 C40.8496053,59.326963 40.3199003,58.3818031 39.7901953,57.4470295 C39.4786041,58.2052347 39.1670129,58.9738263 38.8554217,59.7320316 C41.0781055,58.9218945 43.290403,58.1117574 45.5130868,57.3120066 C44.9314499,57.0731201 44.3394267,56.8342335 43.7577898,56.5953469 C45.7519734,60.1267138 47.746157,63.6580806 49.7403407,67.1790611 C49.9065226,67.4802659 50.083091,67.7814707 50.249273,68.0722892 C50.2804321,68.1346074 50.3115912,68.1865393 50.3427503,68.2488575 C50.3635231,68.290403 50.5504778,68.5500623 50.529705,68.5604487 C50.4985459,68.5812214 50.446614,68.2592439 50.446614,68.2384711 C50.4570004,67.8334026 50.612796,67.5321978 50.9140008,67.345243 C50.7582052,67.4179477 50.7685916,67.4075613 50.9555463,67.3348567 C50.1765683,67.6464479 49.6260906,68.3838803 49.8649771,69.2563357 C50.0727046,70.0041545 50.9970918,70.6584961 51.7864562,70.3469049 C52.4823432,70.0768592 53.0639801,69.7444952 53.3755713,69.0278355 C53.6871624,68.290403 53.5209805,67.5218114 53.1262983,66.8466971 C53.0224346,66.6805152 52.9289572,66.5143332 52.8250935,66.3481512 C52.3577067,65.5276278 51.9007063,64.7071043 51.4333195,63.8761944 C50.0934774,61.5081014 48.7640216,59.1400083 47.4241795,56.7719152 C47.0918155,56.1902784 46.7594516,55.5982551 46.4270877,55.0166182 C46.1154965,54.4557541 45.3053594,54.0714582 44.6717906,54.2999585 C42.4491068,55.1100956 40.2368093,55.9202327 38.0141255,56.7199834 C37.0689655,57.0627337 36.5600332,58.0805983 37.0793519,59.0049855 C38.4607395,61.4561695 39.8525135,63.9073536 41.2339011,66.3585376 C41.9609472,67.6464479 42.6879934,68.9343581 43.4150395,70.2222684 C43.6850852,70.6896552 43.9447445,71.1778147 44.3290403,71.5621105 C45.1703365,72.4241795 46.1882011,72.3722476 47.2268384,71.9879518 C48.7432489,71.437474 50.2596593,70.8869963 51.7760698,70.3261321 C52.5654342,70.0353137 53.0951392,69.2667221 52.866639,68.4046531 C52.6589115,67.6568342 51.7449107,67.0440382 50.9555463,67.3348567 Z" id="Shape"></path>
            <path d="M42.3764022,47.3410885 C46.2297466,45.9389281 50.0727046,44.5367678 53.926049,43.1346074 C54.4765268,42.9372663 55.0270046,42.7295388 55.5878687,42.5321978 C56.3772331,42.2413793 56.9069381,41.4727877 56.6784379,40.6107187 C56.4707104,39.8525135 55.5567096,39.2293311 54.7569589,39.5201496 C50.9036145,40.9223099 47.0606564,42.3244703 43.207312,43.7266307 C42.6568342,43.9239717 42.1063565,44.1316992 41.5454923,44.3290403 C40.756128,44.6198587 40.2264229,45.3884504 40.4549231,46.2505193 C40.673037,47.0191109 41.5766514,47.6319069 42.3764022,47.3410885 L42.3764022,47.3410885 Z" id="Shape"></path>
            <path d="M90.7769007,43.7266307 C90.7769007,44.7444952 90.7457416,45.7623598 90.673037,46.7802243 C90.6418779,47.2579975 90.6003324,47.7357707 90.5484005,48.2135438 C90.5276278,48.4316577 90.4964686,48.6393851 90.4756959,48.857499 C90.4653095,48.9717491 90.4445368,49.0963855 90.4341504,49.2106356 C90.4756959,48.8782717 90.423764,49.2937266 90.4133776,49.3664312 C90.1433319,51.2775239 89.727877,53.1678438 89.198172,55.0166182 C88.9281263,55.9513918 88.6269215,56.875779 88.2945575,57.8001662 C88.1387619,58.2156211 87.9829663,58.6206897 87.8271708,59.0257582 C87.7544661,59.2230993 87.6713752,59.410054 87.5882842,59.5970087 C87.723307,59.2750312 87.5467387,59.7008725 87.5259659,59.7320316 C87.4740341,59.8566681 87.4117158,59.9813045 87.359784,60.105941 C86.5911924,61.8196926 85.718737,63.4815123 84.7320316,65.0706273 C84.243872,65.8599917 83.7245534,66.6389697 83.184462,67.3971749 C82.935189,67.7503116 82.6755297,68.0930619 82.4158704,68.4358122 C82.1458247,68.7993353 82.6028251,68.1969256 82.322393,68.5500623 C82.2704612,68.6227669 82.2081429,68.6954715 82.1562111,68.7681762 C81.9900291,68.98629 81.8134607,69.1940174 81.6472788,69.4017449 C80.4632322,70.8350644 79.1857084,72.1956793 77.8250935,73.4628168 C77.1603656,74.0859992 76.474865,74.6780224 75.778978,75.249273 C75.6024096,75.3946822 75.4258413,75.5400914 75.249273,75.6751143 C75.1454092,75.7582052 75.0311591,75.8412962 74.9272954,75.9243872 C74.9792273,75.8828417 75.1557956,75.7478189 74.916909,75.9347736 C74.5222268,76.2359784 74.1171583,76.5371832 73.7120897,76.8176153 C72.1852929,77.8977981 70.5857914,78.8741172 68.9343581,79.7361861 C68.124221,80.1620274 67.2933112,80.5567096 66.452015,80.930619 C66.3273785,80.9825509 66.202742,81.0448691 66.0677192,81.096801 C66.0157873,81.1175737 65.7872871,81.2110511 66.0573328,81.096801 C65.8496053,81.1902784 65.6314915,81.2733693 65.4133776,81.3564603 C64.9459909,81.543415 64.4682177,81.7199834 63.9904445,81.8965517 C62.2143747,82.5301205 60.3863731,83.0494391 58.547985,83.4441213 C57.6028251,83.6414624 56.6472788,83.8076444 55.6813461,83.9426672 C55.2243457,84.0049855 55.8786872,83.9218945 55.5982551,83.9530536 C55.484005,83.96344 55.3593685,83.9842127 55.2451184,83.9945991 C55.0062318,84.0257582 54.7673452,84.046531 54.5284587,84.0776901 C54.0299128,84.1296219 53.5209805,84.1711674 53.0224346,84.2023265 C50.9867054,84.3373494 48.9509763,84.326963 46.9152472,84.1711674 C46.437474,84.1296219 45.9700872,84.0880764 45.4923141,84.0361446 C45.2430411,84.0049855 44.9937682,83.9738263 44.7444952,83.9426672 C44.2563357,83.880349 45.0560864,83.9945991 44.5679269,83.9218945 C44.4225177,83.9011217 44.2771084,83.880349 44.1213128,83.8595762 C43.1449938,83.714167 42.1790611,83.5272123 41.2131284,83.3090985 C39.2708766,82.8728708 37.359784,82.2912339 35.5006232,81.5745742 C35.272123,81.4914832 35.0540091,81.3980058 34.8255089,81.3149148 C34.6904861,81.262983 34.5554632,81.2006647 34.4204404,81.1487329 C34.3788949,81.1279601 34.1503947,81.0344828 34.3892813,81.1383465 C33.9011217,80.930619 33.4233486,80.7125052 32.9455754,80.484005 C32.0835064,80.0789364 31.2318238,79.6323224 30.3905276,79.1649356 C28.6871624,78.2093893 27.0565019,77.1395929 25.4985459,75.9659327 C25.4777732,75.94516 25.1038637,75.6647279 25.3635231,75.862069 C25.2908184,75.7997507 25.2181138,75.7478189 25.1350229,75.6855006 C24.9480681,75.5400914 24.7611134,75.3946822 24.5845451,75.2388866 C24.1794765,74.9065226 23.7847943,74.5741587 23.3901122,74.2314084 C22.6838388,73.608226 21.9879518,72.9538845 21.3232239,72.2787703 C20.6377233,71.5932696 19.9833818,70.8766099 19.3394267,70.1391774 C19.0486082,69.7964271 18.7577898,69.4536768 18.4773577,69.1005401 C18.3319485,68.9135854 18.1761529,68.7266307 18.0307437,68.5396759 C17.7399252,68.1761529 18.207312,68.7785625 17.9268799,68.4046531 C17.8437889,68.290403 17.7503116,68.1761529 17.6672206,68.0619028 C16.5039468,66.4935604 15.4445368,64.8525135 14.5097632,63.1387619 C14.0527628,62.2974657 13.6165351,61.4457831 13.2114666,60.5733278 C13.1076028,60.355214 13.0141255,60.1371001 12.9102617,59.9189863 C12.8479435,59.7839634 12.7960116,59.659327 12.7336934,59.5243041 C12.7129206,59.4827586 12.6194433,59.243872 12.723307,59.493145 C12.5155796,59.0049855 12.3286248,58.5064396 12.1416701,58.01828 C11.7989198,57.1146656 11.497715,56.1902784 11.2172829,55.2658912 C10.9783963,54.4557541 10.1267138,53.9468218 9.29580391,54.175322 C8.49605318,54.3934358 7.96634815,55.2866639 8.20523473,56.096801 C10.552555,63.948899 15.1017865,71.1154965 21.2816784,76.5164105 C27.5031159,81.95887 35.2305775,85.6460324 43.4150395,86.8716244 C51.7137516,88.1179892 60.1682592,87.02742 67.8541753,83.6518488 C75.0311591,80.5047777 81.2422102,75.3427503 85.801828,68.98629 C90.4653095,62.4740341 93.1969256,54.705027 93.7681762,46.7282925 C93.8408808,45.7104279 93.8720399,44.6925634 93.8720399,43.6746988 C93.8720399,42.8645617 93.1553801,42.0751973 92.3140839,42.1167428 C91.4935604,42.2102202 90.7769007,42.8541753 90.7769007,43.7266307 L90.7769007,43.7266307 Z" id="Shape" stroke="#3F51B5"></path>
            <path d="M9.55546323,43.7266307 C9.55546323,42.7087661 9.58662235,41.6909015 9.65932696,40.673037 C9.69048608,40.1952638 9.73203157,39.7174907 9.78396344,39.2397175 C9.80473619,39.0216037 9.83589531,38.8138762 9.85666805,38.5957624 C9.86705442,38.4815123 9.88782717,38.3568758 9.89821354,38.2426257 C9.85666805,38.5749896 9.90859992,38.1595347 9.91898629,38.0868301 C10.189032,36.1757374 10.6044869,34.2854175 11.1341919,32.4366431 C11.4042376,31.5018695 11.7054425,30.5774823 12.0378064,29.6530951 C12.193602,29.2376402 12.3493976,28.8325717 12.5051932,28.4275031 C12.5778978,28.230162 12.6609888,28.0432073 12.7440798,27.8562526 C12.6090569,28.1782302 12.7856253,27.7523889 12.806398,27.7212297 C12.8583299,27.5965933 12.9206481,27.4719568 12.97258,27.3473203 C13.7411716,25.6335688 14.6136269,23.9717491 15.6003324,22.382634 C16.0884919,21.5932696 16.6078106,20.8142916 17.147902,20.0560864 C17.3971749,19.7029497 17.6568342,19.3601994 17.9164936,19.0174491 C18.1865393,18.653926 17.7295388,19.2563357 18.0099709,18.903199 C18.0619028,18.8304944 18.124221,18.7577898 18.1761529,18.6850852 C18.3423349,18.4669713 18.5189032,18.2592439 18.6850852,18.0515164 C19.8691317,16.6181969 21.1466556,15.2575821 22.5072705,13.9904445 C23.1719983,13.3672622 23.857499,12.7752389 24.553386,12.2039884 C24.7299543,12.0585791 24.9065226,11.9131699 25.083091,11.7781471 C25.1869547,11.6950561 25.3012048,11.6119651 25.4050686,11.5288741 C25.3531367,11.5704196 25.1765683,11.7054425 25.4154549,11.5184877 C25.8101371,11.2172829 26.2152057,10.9160781 26.6202742,10.635646 C28.147071,9.55546323 29.7465725,8.57914416 31.3980058,7.7170752 C32.2081429,7.2912339 33.0390528,6.89655172 33.880349,6.52264229 C34.0049855,6.47071043 34.1296219,6.40839219 34.2646448,6.35646032 C34.3165767,6.33568758 34.5450769,6.24221022 34.2750312,6.35646032 C34.4827586,6.26298297 34.7008725,6.17989198 34.9189863,6.096801 C35.3863731,5.90984628 35.8641462,5.73327794 36.3419194,5.5567096 C38.1179892,4.92314084 39.9459909,4.40382219 41.7843789,4.00914001 C42.7295388,3.81179892 43.6850852,3.64561695 44.6510179,3.5105941 C45.1080183,3.44827586 44.4536768,3.53136685 44.7341088,3.50020773 C44.848359,3.48982135 44.9729954,3.46904861 45.0872455,3.45866224 C45.3261321,3.42750312 45.5650187,3.40673037 45.8039053,3.37557125 C46.3024512,3.32363939 46.8113835,3.28209389 47.3099294,3.25093477 C49.3456585,3.11591192 51.3813876,3.1262983 53.4067304,3.28209389 C53.8845035,3.31325301 54.3518903,3.36518488 54.8296635,3.41711674 C55.0789364,3.44827586 55.3282094,3.47943498 55.567096,3.5105941 C56.0552555,3.57291234 55.2555048,3.45866224 55.7436643,3.53136685 C55.8890735,3.55213959 56.0344828,3.57291234 56.179892,3.59368509 C57.1562111,3.73909431 58.1221437,3.92604902 59.0776901,4.14416286 C61.0199418,4.58039053 62.9310345,5.16202742 64.7901953,5.87868716 C65.0186955,5.96177815 65.2368093,6.0552555 65.4653095,6.13834649 C65.6003324,6.19027835 65.7353552,6.24221022 65.8703781,6.30452846 C65.9119236,6.3253012 66.1404238,6.41877856 65.9015372,6.31491483 C66.3896967,6.52264229 66.8674699,6.74075613 67.345243,6.95886996 C68.207312,7.36393851 69.0589946,7.80016618 69.8899044,8.26755297 C71.5932696,9.21271292 73.2239302,10.2825093 74.7818862,11.4561695 C74.8026589,11.4769423 75.1765683,11.7573743 74.916909,11.5600332 C74.9896136,11.6223515 75.0623182,11.6742833 75.1454092,11.7366016 C75.3323639,11.8820108 75.5193187,12.02742 75.695887,12.1832156 C76.1009555,12.5155796 76.4956377,12.8479435 76.8903199,13.1906938 C77.5965933,13.8138762 78.2924803,14.4682177 78.9572081,15.1329456 C79.6427088,15.8184462 80.2970503,16.5351059 80.9410054,17.2621521 C81.2318238,17.6049024 81.5226423,17.9476527 81.8030744,18.3007894 C81.9484836,18.4877441 82.0938928,18.6746988 82.2496884,18.8512671 C82.5405069,19.2147902 82.0731201,18.6123806 82.3535521,18.98629 C82.4366431,19.1005401 82.5301205,19.2147902 82.6132115,19.3290403 C83.7764853,20.8869963 84.8358953,22.5280432 85.7810553,24.2417948 C86.2380557,25.083091 86.6742833,25.9347736 87.0793519,26.7968425 C87.1832156,27.0149564 87.276693,27.2330702 87.3805567,27.451184 C87.4428749,27.5862069 87.4948068,27.7108434 87.5571251,27.8458662 C87.5778978,27.8874117 87.6713752,28.1159119 87.5675114,27.866639 C87.7752389,28.3547985 87.97258,28.842958 88.1491483,29.3415039 C88.4918986,30.2451184 88.7931034,31.1695056 89.0735355,32.0938928 C89.3124221,32.9040299 90.1641047,33.4129622 90.9950145,33.184462 C91.7947653,32.9663482 92.3244703,32.0731201 92.0855837,31.262983 C89.727877,23.4212713 85.1786456,16.2754466 79.00914,10.884919 C72.7877025,5.45284587 65.0706273,1.7760698 56.8965517,0.550477773 C48.5978396,-0.695886996 40.1537183,0.40506855 32.4678022,3.77025343 C25.2908184,6.91732447 19.0797673,12.0793519 14.5201496,18.4358122 C9.85666805,24.916909 7.11466556,32.6963025 6.54341504,40.673037 C6.47071043,41.6909015 6.43955131,42.7087661 6.43955131,43.7266307 C6.43955131,44.5367678 7.15621105,45.3261321 7.99750727,45.2845866 C8.83880349,45.2430411 9.55546323,44.599086 9.55546323,43.7266307 L9.55546323,43.7266307 Z" id="Shape" stroke="#3F51B5"></path>
            <path d="M13.3464894,36.1653511 C11.4665559,38.0452846 9.59700872,39.9148317 7.7170752,41.7947653 C7.4470295,42.064811 7.16659742,42.345243 6.89655172,42.6152887 C7.63398421,42.6152887 8.36103033,42.6152887 9.09846282,42.6152887 C7.21852929,40.7353552 5.34898214,38.8658081 3.46904861,36.9858745 C3.19900291,36.7158288 2.91857084,36.4353968 2.64852514,36.1653511 C2.05650187,35.5733278 1.03863731,35.5733278 0.446614042,36.1653511 C-0.145409223,36.7573743 -0.145409223,37.7752389 0.446614042,38.3672622 C2.32654757,40.2471957 4.19609472,42.1167428 6.07602825,43.9966764 C6.34607395,44.2667221 6.62650602,44.5471541 6.89655172,44.8171998 C7.48857499,45.4092231 8.50643955,45.4092231 9.09846282,44.8171998 C10.9783963,42.9372663 12.8479435,41.0677192 14.727877,39.1877856 C14.9979227,38.9177399 15.2783548,38.6373079 15.5484005,38.3672622 C16.1404238,37.7752389 16.1404238,36.7573743 15.5484005,36.1653511 C14.9563772,35.5733278 13.948899,35.5733278 13.3464894,36.1653511 L13.3464894,36.1653511 Z" id="Shape"></path>
            <path d="M99.0340673,49.0756128 C97.1541338,47.1956793 95.2845866,45.3261321 93.4046531,43.4461986 C93.1346074,43.1761529 92.8541753,42.8957208 92.5841296,42.6256751 C91.9921064,42.0336518 90.9742418,42.0336518 90.3822185,42.6256751 C88.502285,44.5056086 86.6327378,46.3751558 84.7528043,48.2550893 C84.4827586,48.525135 84.2023265,48.8055671 83.9322808,49.0756128 C83.3402576,49.6676361 83.3402576,50.6855006 83.9322808,51.2775239 C84.5243041,51.8695472 85.5421687,51.8695472 86.1341919,51.2775239 C88.0141255,49.3975904 89.8836726,47.5280432 91.7636061,45.6481097 C92.0336518,45.378064 92.3140839,45.0976319 92.5841296,44.8275862 C91.8466971,44.8275862 91.119651,44.8275862 90.3822185,44.8275862 C92.2621521,46.7075197 94.1316992,48.5770669 96.0116327,50.4570004 C96.2816784,50.7270461 96.5621105,51.0074782 96.8321562,51.2775239 C97.4241795,51.8695472 98.442044,51.8695472 99.0340673,51.2775239 C99.6260906,50.6855006 99.6260906,49.6780224 99.0340673,49.0756128 L99.0340673,49.0756128 Z" id="Shape"></path>
        </g>
    </g>
</svg>