<?xml version="1.0" encoding="UTF-8"?>
<svg width="100px" height="100px" viewBox="0 0 100 100" version="1.1" xmlns="http://www.w3.org/2000/svg" xmlns:xlink="http://www.w3.org/1999/xlink">
    <!-- Generator: Sketch 44.1 (41455) - http://www.bohemiancoding.com/sketch -->
    <title>Group</title>
    <desc>Created with Sketch.</desc>
    <defs></defs>
    <g id="Page-1" stroke="none" stroke-width="1" fill="none" fill-rule="evenodd">
        <g id="Group" fill-rule="nonzero" fill="#3F51B5">
            <path d="M29.4117647,41.1764706 C33.7372549,41.1764706 37.254902,37.6588235 37.254902,33.3333333 C37.254902,29.0078431 33.7372549,25.4901961 29.4117647,25.4901961 C25.0862745,25.4901961 21.5686275,29.0078431 21.5686275,33.3333333 C21.5686275,37.6588235 25.0862745,41.1764706 29.4117647,41.1764706 Z M29.4117647,29.4117647 C31.5745098,29.4117647 33.3333333,31.1705882 33.3333333,33.3333333 C33.3333333,35.4960784 31.5745098,37.254902 29.4117647,37.254902 C27.2490196,37.254902 25.4901961,35.4960784 25.4901961,33.3333333 C25.4901961,31.1705882 27.2490196,29.4117647 29.4117647,29.4117647 Z" id="Shape"></path>
            <path d="M60.7843137,41.1764706 C65.1098039,41.1764706 68.627451,37.6588235 68.627451,33.3333333 C68.627451,29.0078431 65.1098039,25.4901961 60.7843137,25.4901961 C56.4588235,25.4901961 52.9411765,29.0078431 52.9411765,33.3333333 C52.9411765,37.6588235 56.4588235,41.1764706 60.7843137,41.1764706 Z M60.7843137,29.4117647 C62.9470588,29.4117647 64.7058824,31.1705882 64.7058824,33.3333333 C64.7058824,35.4960784 62.9470588,37.254902 60.7843137,37.254902 C58.6215686,37.254902 56.8627451,35.4960784 56.8627451,33.3333333 C56.8627451,31.1705882 58.6215686,29.4117647 60.7843137,29.4117647 Z" id="Shape"></path>
            <path d="M99.4254902,90.7705882 L80.9901961,72.3352941 C86.9156863,64.527451 90.1960784,54.9431373 90.1960784,45.0980392 C90.1960784,20.2294118 69.9647059,0 45.0980392,0 C20.2313725,0 0,20.2294118 0,45.0980392 C0,69.9666667 20.2313725,90.1960784 45.0980392,90.1960784 C54.9392157,90.1960784 64.5294118,86.9176471 72.3352941,80.9921569 L90.7686275,99.4254902 C91.1529412,99.8078431 91.654902,100 92.1568627,100 C92.6588235,100 93.1607843,99.8078431 93.5431373,99.4254902 L99.4254902,93.5431373 C100.192157,92.7764706 100.192157,91.5372549 99.4254902,90.7705882 Z M45.0980392,86.2745098 C22.3921569,86.2745098 3.92156863,67.8019608 3.92156863,45.0980392 C3.92156863,22.3941176 22.3921569,3.92156863 45.0980392,3.92156863 C67.8039216,3.92156863 86.2745098,22.3941176 86.2745098,45.0980392 C86.2745098,53.9078431 83.4,62.4882353 78.1941176,69.5392157 L70.0137255,61.3588235 C69.6470588,60.9901961 69.1470588,60.7843137 68.627451,60.7843137 L62.745098,60.7843137 C62.5529412,60.7843137 62.3784314,60.8411765 62.2039216,60.8941176 L61.5784314,60.0490196 C48.872549,69.4705882 32.6647059,66.8470588 22.1627451,53.6803922 L19.0980392,56.1235294 C26.1921569,65.0235294 35.6156863,69.6470588 45.1411765,69.6470588 C50.454902,69.6470588 55.7941176,68.1823529 60.7862745,65.245098 L60.7862745,68.627451 C60.7862745,69.1490196 60.9921569,69.6470588 61.3607843,70.0137255 L69.5392157,78.1921569 C62.4882353,83.3980392 53.9039216,86.2745098 45.0980392,86.2745098 Z M92.1568627,95.2666667 L64.7058824,67.8156863 L64.7058824,64.7058824 L67.8156863,64.7058824 L95.2666667,92.1568627 L92.1568627,95.2666667 Z" id="Shape"></path>
        </g>
    </g>
</svg>