<svg width="100" height="100" viewBox="0 0 100 100" xmlns="http://www.w3.org/2000/svg"><path d="M78.571 53.571c0-.473-.188-.929-.523-1.262l-.523-.523.523-.523c.336-.334.523-.789.523-1.263v-6.404l20.905-20.905-2.525-2.525-11.237 11.238-17.118-17.118 11.237-11.238-2.525-2.525-20.905 20.905h-6.404c-.473 0-.929.188-1.263.523l-.523.523-.523-.523-.677-.677-6.466-6.466c-.334-.336-.789-.523-1.262-.523h-2.832l-13.763-13.763-2.525 2.525 4.095 4.095-17.118 17.118-4.095-4.095-2.525 2.525 13.763 13.763v9.975c0 .473.188.929.523 1.262l4.834 4.834v5.664l-19.12 19.12 2.525 2.525 9.452-9.452 17.118 17.118-9.452 9.452 2.525 2.525 19.12-19.12h6.404c.473 0 .929-.188 1.263-.523l1.263-1.262h5.664l20.905 20.905 2.525-2.525-11.237-11.237 17.118-17.118 11.237 11.237 2.525-2.525-20.905-20.905v-2.832zm-12.5-36.761l17.118 17.118-6.404 6.404-17.118-17.118 6.404-6.404zm-9.668 8.189l18.596 18.596v5.664l-24.261-24.261h5.664zm18.596 29.311v2.093l-18.596 18.596h-5.664l-9.668-9.668v-2.093l2.309 2.309 2.525-2.525-20.32-20.32c-.377-.379-.586-.88-.586-1.416 0-1.104.898-2.002 2.002-2.002.536 0 1.038.209 1.416.586l13.177 13.177 2.525-2.525-13.177-13.177c-.377-.379-.586-.88-.586-1.416 0-1.104.898-2.002 2.002-2.002.536 0 1.038.209 1.416.586l13.177 13.177 2.525-2.525-13.177-13.177c-.377-.379-.586-.88-.586-1.416 0-1.104.898-2.002 2.002-2.002.536 0 1.038.209 1.416.586l13.177 13.177 2.525-2.525-13.177-13.177c-.377-.379-.586-.88-.586-1.416 0-1.104.898-2.002 2.002-2.002.536 0 1.038.209 1.416.586l.677.677 29.834 29.834zm-48.214-44.643l6.404 6.404-17.118 17.118-6.404-6.404 17.118-17.118zm-8.929 26.786l18.596-18.596h2.093l2.271 2.271c-1.893.843-3.221 2.707-3.298 4.891-2.914.104-5.254 2.443-5.357 5.357-2.914.104-5.254 2.443-5.357 5.357-2.98.105-5.377 2.548-5.377 5.554 0 1.489.58 2.889 1.632 3.941l1.2 1.2-2.832 2.832-3.571-3.571v-9.236zm14.286 48.521l-17.118-17.118 6.404-6.404 17.118 17.118-6.404 6.404zm9.668-8.189l-18.596-18.596v-5.664l3.571-3.571 10.714 10.714v6.404c0 .473.188.929.523 1.262l9.452 9.452h-5.664zm24.261 6.404l-6.404-6.404 17.118-17.118 6.404 6.404-17.118 17.118zm5.88-14.81l3.57-3.57 2.525 2.525-3.57 3.57zm-44.642 7.883l2.525-2.525 3.57 3.57-2.525 2.525zm-5.357-57.883l3.57-3.57 2.525 2.525-3.57 3.57zm42.856 6.098l2.525-2.525 3.57 3.57-2.525 2.525z" fill="#3F51B5"/></svg>