<?xml version="1.0" encoding="UTF-8"?>
<svg width="81px" height="65px" viewBox="0 0 81 65" version="1.1" xmlns="http://www.w3.org/2000/svg" xmlns:xlink="http://www.w3.org/1999/xlink">
    <!-- Generator: Sketch 44.1 (41455) - http://www.bohemiancoding.com/sketch -->
    <title>Shape</title>
    <desc>Created with Sketch.</desc>
    <defs></defs>
    <g id="Page-1" stroke="none" stroke-width="1" fill="none" fill-rule="evenodd">
        <path d="M68.9321248,1.482 L11.5475248,1.482 L1.24199143,19.9335632 L40.2419914,63.482 L79.0019248,20.2008689 L79.2419914,19.9335632 L68.9321248,1.482 Z M41.3911914,2.58034289 L67.2611914,2.58034289 L53.1986581,18.8919668 L41.3911914,2.58034289 Z M52.0026581,19.3168186 L28.4752581,19.3168186 L40.2419914,3.06866121 L52.0026581,19.3168186 Z M27.2801248,18.8919668 L13.2149914,2.58034289 L39.0919248,2.58034289 L27.2801248,18.8919668 Z M26.0581248,19.3168186 L3.00132476,19.3168186 L12.0649248,3.08882114 L26.0581248,19.3168186 Z M26.8329248,20.4159082 L38.8371248,60.1145449 L3.28385809,20.4159082 L26.8329248,20.4159082 Z M52.3276581,20.4159082 L40.2419914,60.4035039 L28.1511248,20.4159082 L52.3276581,20.4159082 Z M54.4215248,19.3168186 L68.4129914,3.08882114 L77.4835248,19.3168186 L54.4215248,19.3168186 Z M77.1992581,20.4159082 L41.6468581,60.1152916 L53.6449914,20.4159082 L77.1992581,20.4159082 Z" id="Shape" stroke="#3F51B5" stroke-width="2" fill="#3F51B5" fill-rule="nonzero"></path>
    </g>
</svg>