<?xml version="1.0" encoding="UTF-8"?>
<svg width="100px" height="128px" viewBox="0 0 100 128" version="1.1" xmlns="http://www.w3.org/2000/svg" xmlns:xlink="http://www.w3.org/1999/xlink">
    <!-- Generator: Sketch 44.1 (41455) - http://www.bohemiancoding.com/sketch -->
    <title>Group</title>
    <desc>Created with Sketch.</desc>
    <defs></defs>
    <g id="Page-1" stroke="none" stroke-width="1" fill="none" fill-rule="evenodd">
        <g id="Group" fill-rule="nonzero" fill="#3F51B5">
            <path d="M88.6363636,0 L29.5454545,0 C23.9863636,0 19.3659091,4.01818182 18.3909091,9.3 C13.7818182,10.1522727 10.1522727,13.7818182 9.3,18.3909091 C4.01818182,19.3659091 0,23.9863636 0,29.5454545 L0,115.909091 C0,122.175 5.09772727,127.272727 11.3636364,127.272727 L70.4545455,127.272727 C76.0136364,127.272727 80.6340909,123.254545 81.6090909,117.972727 C86.2181818,117.120455 89.8477273,113.490909 90.7,108.881818 C95.9818182,107.906818 100,103.286364 100,97.7272727 L100,11.3636364 C100,5.09772727 94.9022727,0 88.6363636,0 Z M77.2727273,115.909091 C77.2727273,119.668182 74.2136364,122.727273 70.4545455,122.727273 L11.3636364,122.727273 C7.60454545,122.727273 4.54545455,119.668182 4.54545455,115.909091 L4.54545455,29.5454545 C4.54545455,25.7863636 7.60454545,22.7272727 11.3636364,22.7272727 L70.4545455,22.7272727 C74.2136364,22.7272727 77.2727273,25.7863636 77.2727273,29.5454545 L77.2727273,115.909091 Z M86.3636364,106.818182 C86.3636364,109.777273 84.4568182,112.277273 81.8181818,113.218182 L81.8181818,29.5454545 C81.8181818,23.2795455 76.7204545,18.1818182 70.4545455,18.1818182 L14.0545455,18.1818182 C14.9954545,15.5431818 17.4954545,13.6363636 20.4545455,13.6363636 L79.5454545,13.6363636 C83.3045455,13.6363636 86.3636364,16.6954545 86.3636364,20.4545455 L86.3636364,106.818182 Z M95.4545455,97.7272727 C95.4545455,100.686364 93.5477273,103.186364 90.9090909,104.127273 L90.9090909,20.4545455 C90.9090909,14.1886364 85.8113636,9.09090909 79.5454545,9.09090909 L23.1454545,9.09090909 C24.0863636,6.45227273 26.5863636,4.54545455 29.5454545,4.54545455 L88.6363636,4.54545455 C92.3954545,4.54545455 95.4545455,7.60454545 95.4545455,11.3636364 L95.4545455,97.7272727 Z" id="Shape"></path>
            <path d="M65.9090909,29.5454545 C62.15,29.5454545 59.0909091,32.6045455 59.0909091,36.3636364 C59.0909091,37.4136364 59.3477273,38.3954545 59.775,39.2840909 L52.0318182,47.0272727 C50.8522727,46.0590909 49.3681818,45.4545455 47.7272727,45.4545455 C45.9340909,45.4545455 44.3136364,46.1636364 43.0954545,47.2977273 L35.9886364,43.0340909 C36.2136364,42.3613636 36.3636364,41.6568182 36.3636364,40.9090909 C36.3636364,37.15 33.3045455,34.0909091 29.5454545,34.0909091 C25.7863636,34.0909091 22.7272727,37.15 22.7272727,40.9090909 C22.7272727,42.0886364 23.0568182,43.1840909 23.5863636,44.1522727 L17.0022727,52.3840909 C16.6431818,52.325 16.2818182,52.2727273 15.9090909,52.2727273 C12.15,52.2727273 9.09090909,55.3318182 9.09090909,59.0909091 C9.09090909,62.85 12.15,65.9090909 15.9090909,65.9090909 C19.6681818,65.9090909 22.7272727,62.85 22.7272727,59.0909091 C22.7272727,57.3772727 22.0704545,55.8295455 21.025,54.6318182 L26.9613636,47.2113636 C27.7590909,47.5409091 28.6295455,47.7272727 29.5454545,47.7272727 C30.8863636,47.7272727 32.1295455,47.325 33.1863636,46.6522727 L41.0022727,51.3431818 C40.9613636,51.65 40.9090909,51.9545455 40.9090909,52.2727273 C40.9090909,56.0318182 43.9681818,59.0909091 47.7272727,59.0909091 C51.4863636,59.0909091 54.5454545,56.0318182 54.5454545,52.2727273 C54.5454545,51.8590909 54.4931818,51.4568182 54.4227273,51.0636364 L62.9863636,42.5 C63.8772727,42.925 64.8590909,43.1818182 65.9090909,43.1818182 C69.6681818,43.1818182 72.7272727,40.1227273 72.7272727,36.3636364 C72.7272727,32.6045455 69.6681818,29.5454545 65.9090909,29.5454545 Z M15.9090909,61.3636364 C14.6568182,61.3636364 13.6363636,60.3454545 13.6363636,59.0909091 C13.6363636,57.8363636 14.6568182,56.8181818 15.9090909,56.8181818 C17.1613636,56.8181818 18.1818182,57.8363636 18.1818182,59.0909091 C18.1818182,60.3454545 17.1613636,61.3636364 15.9090909,61.3636364 Z M27.2727273,40.9090909 C27.2727273,39.6545455 28.2931818,38.6363636 29.5454545,38.6363636 C30.7977273,38.6363636 31.8181818,39.6545455 31.8181818,40.9090909 C31.8181818,42.1636364 30.7977273,43.1818182 29.5454545,43.1818182 C28.2931818,43.1818182 27.2727273,42.1636364 27.2727273,40.9090909 Z M47.7272727,54.5454545 C46.475,54.5454545 45.4545455,53.5272727 45.4545455,52.2727273 C45.4545455,51.0181818 46.475,50 47.7272727,50 C48.9795455,50 50,51.0181818 50,52.2727273 C50,53.5272727 48.9795455,54.5454545 47.7272727,54.5454545 Z M65.9090909,38.6363636 C64.6568182,38.6363636 63.6363636,37.6181818 63.6363636,36.3636364 C63.6363636,35.1090909 64.6568182,34.0909091 65.9090909,34.0909091 C67.1613636,34.0909091 68.1818182,35.1090909 68.1818182,36.3636364 C68.1818182,37.6181818 67.1613636,38.6363636 65.9090909,38.6363636 Z" id="Shape"></path>
            <rect id="Rectangle-path" x="13.6363636" y="70.4545455" width="54.5454545" height="4.54545455"></rect>
            <rect id="Rectangle-path" x="13.6363636" y="79.5454545" width="54.5454545" height="4.54545455"></rect>
            <path d="M25,88.6363636 C17.4795455,88.6363636 11.3636364,94.7522727 11.3636364,102.272727 C11.3636364,109.793182 17.4795455,115.909091 25,115.909091 C32.5204545,115.909091 38.6363636,109.793182 38.6363636,102.272727 C38.6363636,94.7522727 32.5204545,88.6363636 25,88.6363636 Z M34.0909091,102.272727 C34.0909091,103.497727 33.8409091,104.663636 33.4,105.731818 L27.2727273,101.136364 L27.2727273,93.5045455 C31.1818182,94.5204545 34.0909091,98.0477273 34.0909091,102.272727 Z M22.7272727,93.5045455 L22.7272727,100 L16.2318182,100 C17.0590909,96.8204545 19.5477273,94.3318182 22.7272727,93.5045455 Z M16.2318182,104.545455 L24.2431818,104.545455 L30.6431818,109.345455 C29.0863636,110.588636 27.1409091,111.363636 25,111.363636 C20.7772727,111.363636 17.2477273,108.456818 16.2318182,104.545455 Z" id="Shape"></path>
            <rect id="Rectangle-path" x="43.1818182" y="90.9090909" width="25" height="4.54545455"></rect>
            <rect id="Rectangle-path" x="43.1818182" y="100" width="25" height="4.54545455"></rect>
            <rect id="Rectangle-path" x="43.1818182" y="109.090909" width="25" height="4.54545455"></rect>
        </g>
    </g>
</svg>