<svg width="100" height="89" viewBox="0 0 100 89" xmlns="http://www.w3.org/2000/svg"><g fill="#E91E63"><path d="M57.541 24.224c1.246 3.428 2.493 6.855 3.739 10.272 1.973 5.411 3.947 10.833 5.91 16.244l1.361 3.729 2.285-1.755c-1.6-.883-3.386-1.454-5.152-1.89-1.776-.436-3.656-.779-5.494-.758-1.444.021-2.617.519-3.947 1.007l-14.146 5.152c-1.361.499-2.732.997-4.092 1.485l1.921 1.091-2.347-6.45c-1.226-3.407-2.472-6.813-3.708-10.22l-.862-2.358-1.091 1.921c3.531-1.288 7.063-2.565 10.584-3.853l7.032-2.555c.706-.26 1.413-.509 2.108-.769.499-.187 1.018-.353 1.475-.634 1.703-1.039 3.043-2.7 4.248-4.258 1.278-1.662 2.42-3.438 3.178-5.401.291-.758-.322-1.745-1.091-1.921-.893-.208-1.6.27-1.921 1.091l-.01.042-.093.208-.26.55c-.197.395-.415.769-.634 1.153-.478.789-.997 1.558-1.548 2.306l-.218.291-.021.021-.447.55c-.291.353-.592.696-.904 1.028-.28.301-.571.602-.883.883l-.343.301-.249.208c-.229.197.26-.177 0 0l-.654.415c-.197.135.322-.114.073-.031l-.395.145-1.942.706-13.949 5.079-3.968 1.444c-.737.27-1.392 1.07-1.091 1.921l2.347 6.45 3.718 10.22.862 2.358c.27.737 1.07 1.392 1.921 1.091 3.448-1.257 6.897-2.514 10.345-3.76l7-2.545c1.059-.384 2.129-.893 3.22-1.153l.187-.042c.353-.093-.343.01-.031 0l.478-.031c.405-.01.81 0 1.226.031l.748.073.26.031.114.021c.509.073 1.007.166 1.506.27 1.039.218 2.067.488 3.085.821.239.083.467.156.696.249l.249.093.291.114.156.073.322.145c.197.093.395.197.592.312 1.101.613 2.773-.426 2.285-1.755-1.246-3.428-2.493-6.855-3.739-10.272-1.973-5.411-3.947-10.833-5.91-16.244l-1.361-3.729c-.291-.789-1.059-1.319-1.921-1.091-.769.166-1.381 1.08-1.101 1.88zm4.175-4.321c.499 1.361.997 2.732 1.485 4.092l3.49 9.576 4.009 11.01 3.043 8.351c.239.654.478 1.298.706 1.953l.062.166.01.031.042.135.052.208c.062.166.021-.28.01.062-.01.125-.021.405.021.125-.021.156-.073.301-.114.457-.073.218.114-.197 0 0l-.104.177.01.01-.187.197v.021l-.177.114-.125.073-.083.021-.27.073.073-.01-.208.01c-.353.021.114.062-.052.01l-.447-.125c.27.104-.073-.062-.166-.114l.042.042-.197-.187-.052-.052c.114.156-.083-.156-.104-.187-.166-.249.021.093-.042-.062l-.187-.53c-.301-.831-.602-1.662-.914-2.503l-3.272-8.995-4.02-11.051c-1.091-3.012-2.192-6.014-3.282-9.026l-.904-2.482-.187-.509-.114-.395c-.073-.197-.021.218 0 0l-.01-.208-.021.01.042-.197c.031-.104.187-.447.052-.197.052-.093.322-.467.125-.239l.239-.249.062-.042.239-.135c-.239.125.145-.042.239-.052-.177.031.426.01.229-.021.27.031.519.156.634.239l.28.291c-.208-.249.156.384.042.114.312.779 1.039 1.329 1.921 1.091.748-.208 1.402-1.132 1.091-1.921-.81-2.025-2.804-3.313-5.027-2.804-1.859.436-3.157 2.098-3.261 3.968-.052.862.239 1.589.53 2.368.893 2.462 1.786 4.923 2.69 7.374 1.361 3.749 2.732 7.499 4.092 11.259l3.812 10.469c.623 1.724 1.236 3.459 1.88 5.172.395 1.039 1.059 1.963 2.067 2.472 1.662.831 3.739.571 5.048-.8 1.226-1.298 1.433-3.064.841-4.684l-2.358-6.46c-1.329-3.646-2.659-7.291-3.978-10.937l-3.957-10.864-2.275-6.242-.104-.291c-.291-.789-1.059-1.319-1.921-1.091-.758.218-1.381 1.132-1.091 1.921zm-31.71 20.7l2.347 6.45 3.718 10.22.862 2.358 1.091-1.921c-.239.093-.488.166-.748.229l-.291.062c-.031.01-.519.073-.177.042-.54.062-1.08.062-1.62 0 .353.042-.125-.031-.166-.031l-.353-.083c-.26-.062-.509-.156-.758-.239l-.031-.01-.395-.187c-.26-.135-.509-.28-.748-.447l-.156-.104-.229-.187c-.218-.187-.426-.395-.623-.613l-.187-.218c-.301-.353.135.239-.114-.156-.177-.27-.353-.54-.499-.831-.145-.291-.27-.644-.426-1.059l-1.402-3.864-.384-1.049c-.073-.197-.135-.384-.187-.582l-.114-.488-.031-.166c-.031-.239-.042-.488-.042-.727l.01-.436.031-.364.042-.218.135-.561.083-.27c.021-.052.218-.592.093-.291.218-.519.509-1.028.862-1.475-.197.26.104-.104.125-.125l.301-.312.312-.301c.01-.01.374-.301.135-.125.229-.177.478-.343.737-.488l.395-.208.27-.125.052-.01c.789-.291 1.329-1.049 1.091-1.921-.208-.758-1.122-1.381-1.921-1.091-2.597.976-4.601 2.981-5.453 5.64-.644 1.984-.436 4.04.27 5.972.509 1.402 1.018 2.804 1.537 4.217.644 1.776 1.444 3.428 2.95 4.643 2.337 1.901 5.588 2.607 8.455 1.558.737-.27 1.392-1.07 1.091-1.921l-2.347-6.45c-1.246-3.396-2.493-6.803-3.729-10.21l-.862-2.358c-.291-.789-1.059-1.319-1.921-1.091-.758.218-1.371 1.122-1.08 1.921zm-2.264 14.739c.218.561.457 1.111.758 1.631l.935-2.285-1.091.395-.582.208-.125.042-.135.042.083-.01.093.021.01.021-.062-.021c.166.073-.073-.156.01 0 .031.062.114.073.083.177l-.062-.166-.343-.935c-.353-.966-.706-1.932-1.049-2.887-.135-.374-.27-.758-.415-1.132l-.104-.291-.021-.052-.021-.073c-.114-.177.104.229-.01-.052.093.218-.177.083.01.031l-.062.135.021-.062c-.052.156.145-.062 0 .01l-.166.083c.125.021.405-.145.519-.187l1.267-.467-1.921-1.091c.218 1.298.789 2.555 1.236 3.791.384 1.049.769 2.088 1.143 3.126.291.789 1.059 1.319 1.921 1.091.758-.208 1.381-1.122 1.091-1.921l-1.132-3.116c-.447-1.236-1.018-2.493-1.236-3.791-.135-.789-1.184-1.35-1.921-1.091-1.111.405-2.482.706-3.241 1.672-.613.789-.789 1.818-.488 2.763.093.291.208.582.322.872.405 1.101.8 2.202 1.205 3.292.395 1.08.696 2.275 1.745 2.908 1.454.872 2.856.156 4.258-.353.924-.343 1.475-1.361.935-2.285-.187-.322-.364-.665-.447-.893-.301-.789-1.049-1.329-1.921-1.091-.758.229-1.392 1.153-1.091 1.942zm42.397-21.677l1.6 4.404.322.893.062.166c.135.332-.021.021.031-.01 0 .187 0 .177.031-.021l.021-.01h.021l.01.01.062-.021c-.166.031-.332.125-.488.177l-1.111.405 1.921 1.091-2.971-8.164-1.091 1.921 1.329-.488.27-.104.114-.052c-.114.083.135 0-.021-.01l.052.021-.135-.062.114.062-.114-.083.052.042c-.052-.031-.073-.093-.083-.166.322.779 1.028 1.329 1.921 1.091.727-.197 1.413-1.132 1.091-1.921-.322-.758-.758-1.392-1.516-1.766-.706-.343-1.506-.415-2.254-.177-.55.177-1.101.405-1.651.602-.737.27-1.392 1.07-1.091 1.921l2.971 8.164c.27.737 1.07 1.392 1.921 1.091.55-.197 1.111-.395 1.662-.602 1.527-.592 2.462-2.15 1.942-3.77-.426-1.319-.956-2.628-1.433-3.926l-.55-1.516c-.291-.789-1.059-1.319-1.921-1.091-.769.197-1.381 1.111-1.091 1.901zm-19.183 34.67l-3.988 1.454-.758.28-.135.052c-.083.031-.208.042-.27.093-.156.104.353-.021.177-.021l.332.073.27.156h-.01l-.197-.301-.031-.052-.197-.364-4.767-8.444-1.589-2.815-.935 2.285c2.223-.81 4.435-1.62 6.658-2.42l-1.755-.717c1.994 3.531 3.988 7.063 5.983 10.584l.509.893.093.177c.021.042.208.301.187.312-.031.021-.083-.301-.083-.322.01-.405.166-.706.467-.893l.042-.01c-.779.312-1.329 1.049-1.091 1.921.208.748 1.132 1.402 1.921 1.091.696-.27 1.278-.602 1.589-1.319.312-.737.145-1.506-.249-2.181l-.301-.499c-.467-.821-.924-1.641-1.392-2.472l-4.009-7.104-.997-1.755c-.312-.561-1.122-.945-1.755-.717-2.223.81-4.435 1.62-6.658 2.42-.945.343-1.454 1.361-.935 2.285l4.155 7.354 2.181 3.864c.27.467.53.956.914 1.34.841.862 1.859.81 2.898.426 1.516-.55 3.033-1.101 4.549-1.662.789-.291 1.319-1.059 1.091-1.921-.208-.748-1.122-1.361-1.911-1.07zm-8.58-19.994l11.55-4.206 1.662-.602c.789-.291 1.319-1.059 1.091-1.921-.208-.758-1.122-1.381-1.921-1.091l-11.55 4.206-1.662.602c-.789.291-1.319 1.059-1.091 1.921.218.769 1.122 1.381 1.921 1.091z"/><path d="M90.777 44.727c0 1.018-.031 2.036-.104 3.054-.031.478-.073.956-.125 1.433l-.073.644-.042.353-.021.156c-.27 1.911-.686 3.801-1.215 5.65-.27.935-.571 1.859-.904 2.784l-.467 1.226c-.073.197-.156.384-.239.571l-.062.135-.166.374c-.769 1.714-1.641 3.376-2.628 4.965-.488.789-1.007 1.568-1.548 2.327-.249.353-.509.696-.769 1.039l-.093.114-.166.218-.509.634c-1.184 1.433-2.462 2.794-3.822 4.061-.665.623-1.35 1.215-2.046 1.786l-.53.426-.322.249-.01.01c-.395.301-.8.602-1.205.883-1.527 1.08-3.126 2.057-4.778 2.919-.81.426-1.641.821-2.482 1.194l-.384.166h-.01c-.208.093-.426.177-.644.26-.467.187-.945.364-1.423.54-1.776.634-3.604 1.153-5.442 1.548-.945.197-1.901.364-2.867.499l-.083.01-.353.042-.717.083c-.499.052-1.007.093-1.506.125-2.036.135-4.071.125-6.107-.031-.478-.042-.945-.083-1.423-.135l-.748-.093-.177-.021-.447-.062c-.976-.145-1.942-.332-2.908-.55-1.942-.436-3.853-1.018-5.713-1.735l-.675-.26-.405-.166-.031-.01c-.488-.208-.966-.426-1.444-.654-.862-.405-1.714-.852-2.555-1.319-1.703-.956-3.334-2.025-4.892-3.199l-.135-.104-.229-.177c-.187-.145-.374-.291-.55-.447-.405-.332-.8-.665-1.194-1.007-.706-.623-1.402-1.278-2.067-1.953-.686-.686-1.34-1.402-1.984-2.14-.291-.343-.582-.686-.862-1.039l-.447-.561-.104-.135-.26-.343c-1.163-1.568-2.223-3.209-3.157-4.923-.457-.841-.893-1.693-1.298-2.565l-.301-.654-.177-.395-.01-.031c-.208-.488-.395-.987-.582-1.475-.343-.904-.644-1.828-.924-2.752-.239-.81-1.091-1.319-1.921-1.091-.8.218-1.329 1.111-1.091 1.921 2.347 7.852 6.897 15.019 13.076 20.42 6.221 5.442 13.949 9.13 22.133 10.355 8.299 1.246 16.753.156 24.439-3.22 7.177-3.147 13.388-8.309 17.948-14.666 4.663-6.512 7.395-14.281 7.966-22.258.073-1.018.104-2.036.104-3.054 0-.81-.717-1.6-1.558-1.558-.821.093-1.537.737-1.537 1.61zm-81.222 0c0-1.018.031-2.036.104-3.054.031-.478.073-.956.125-1.433l.073-.644.042-.353.021-.156c.27-1.911.686-3.801 1.215-5.65.27-.935.571-1.859.904-2.784l.467-1.226c.073-.197.156-.384.239-.571l.062-.135.166-.374c.769-1.714 1.641-3.376 2.628-4.965.488-.789 1.007-1.568 1.548-2.327.249-.353.509-.696.769-1.039l.093-.114.166-.218.509-.634c1.184-1.433 2.462-2.794 3.822-4.061.665-.623 1.35-1.215 2.046-1.786l.53-.426.322-.249.01-.01c.395-.301.8-.602 1.205-.883 1.527-1.08 3.126-2.057 4.778-2.919.81-.426 1.641-.821 2.482-1.194l.384-.166h.01c.208-.093.426-.177.644-.26.467-.187.945-.364 1.423-.54 1.776-.634 3.604-1.153 5.442-1.548.945-.197 1.901-.364 2.867-.499l.083-.01.353-.042.717-.083c.499-.052 1.007-.093 1.506-.125 2.036-.135 4.071-.125 6.097.031.478.031.945.083 1.423.135l.737.093.177.021.436.062c.976.145 1.942.332 2.898.55 1.942.436 3.853 1.018 5.713 1.735l.675.26.405.166.031.01c.488.208.966.426 1.444.644.862.405 1.714.841 2.545 1.309 1.703.945 3.334 2.015 4.892 3.189l.135.104.229.177c.187.145.374.291.55.447.405.332.8.665 1.194 1.007.706.623 1.402 1.278 2.067 1.942.686.686 1.34 1.402 1.984 2.129.291.343.582.686.862 1.039.145.187.291.374.447.55l.104.135.26.343c1.163 1.558 2.223 3.199 3.168 4.913.457.841.893 1.693 1.298 2.555l.301.654.177.395.01.021c.208.488.405.976.582 1.475.343.904.644 1.828.924 2.752.239.81 1.091 1.319 1.921 1.091.8-.218 1.329-1.111 1.091-1.921-2.358-7.842-6.907-14.988-13.076-20.378-6.221-5.432-13.939-9.109-22.113-10.334-8.299-1.246-16.743-.145-24.429 3.22-7.177 3.147-13.388 8.309-17.948 14.666-4.663 6.481-7.405 14.26-7.977 22.237-.073 1.018-.104 2.036-.104 3.054 0 .81.717 1.6 1.558 1.558.841-.042 1.558-.686 1.558-1.558z" stroke="#E91E63"/><path d="M13.346 37.165l-5.629 5.629-.821.821h2.202l-5.629-5.629-.821-.821c-.592-.592-1.61-.592-2.202 0-.592.592-.592 1.61 0 2.202l5.629 5.629.821.821c.592.592 1.61.592 2.202 0l5.629-5.629.821-.821c.592-.592.592-1.61 0-2.202-.592-.592-1.6-.592-2.202 0zm85.688 12.911l-5.629-5.629-.821-.821c-.592-.592-1.61-.592-2.202 0l-5.629 5.629-.821.821c-.592.592-.592 1.61 0 2.202.592.592 1.61.592 2.202 0l5.629-5.629.821-.821h-2.202l5.629 5.629.821.821c.592.592 1.61.592 2.202 0 .592-.592.592-1.6 0-2.202z"/></g></svg>